<svg width="22" height="22" viewBox="0 0 22 22" fill="none" xmlns="http://www.w3.org/2000/svg">
<path d="M8.64284 3.76785H12.9286C12.9286 3.19953 12.7028 2.65449 12.3009 2.25262C11.8991 1.85076 11.354 1.625 10.7857 1.625C10.2174 1.625 9.67233 1.85076 9.27047 2.25262C8.8686 2.65449 8.64284 3.19953 8.64284 3.76785ZM7.0357 3.76785C7.0357 3.2754 7.13269 2.78776 7.32115 2.33279C7.5096 1.87782 7.78582 1.46442 8.13404 1.1162C8.48226 0.767983 8.89566 0.49176 9.35063 0.303305C9.8056 0.114849 10.2932 0.0178528 10.7857 0.0178528C11.2782 0.0178528 11.7658 0.114849 12.2208 0.303305C12.6757 0.49176 13.0891 0.767983 13.4373 1.1162C13.7856 1.46442 14.0618 1.87782 14.2502 2.33279C14.4387 2.78776 14.5357 3.2754 14.5357 3.76785H20.6964C20.9095 3.76785 21.1139 3.85251 21.2646 4.00321C21.4153 4.15391 21.5 4.3583 21.5 4.57142C21.5 4.78454 21.4153 4.98894 21.2646 5.13963C21.1139 5.29033 20.9095 5.37499 20.6964 5.37499H19.2821L18.0285 18.3511C17.9324 19.3453 17.4693 20.2681 16.7296 20.9394C15.99 21.6108 15.0267 21.9825 14.0278 21.9821H7.54355C6.54484 21.9822 5.58187 21.6104 4.84243 20.9391C4.10298 20.2678 3.64005 19.3451 3.54391 18.3511L2.28927 5.37499H0.874982C0.661862 5.37499 0.45747 5.29033 0.306772 5.13963C0.156073 4.98894 0.0714111 4.78454 0.0714111 4.57142C0.0714111 4.3583 0.156073 4.15391 0.306772 4.00321C0.45747 3.85251 0.661862 3.76785 0.874982 3.76785H7.0357ZM9.17855 8.85714C9.17855 8.64402 9.09389 8.43963 8.94319 8.28893C8.79249 8.13823 8.5881 8.05357 8.37498 8.05357C8.16186 8.05357 7.95747 8.13823 7.80677 8.28893C7.65607 8.43963 7.57141 8.64402 7.57141 8.85714V16.8929C7.57141 17.106 7.65607 17.3104 7.80677 17.4611C7.95747 17.6118 8.16186 17.6964 8.37498 17.6964C8.5881 17.6964 8.79249 17.6118 8.94319 17.4611C9.09389 17.3104 9.17855 17.106 9.17855 16.8929V8.85714ZM13.1964 8.05357C13.4095 8.05357 13.6139 8.13823 13.7646 8.28893C13.9153 8.43963 14 8.64402 14 8.85714V16.8929C14 17.106 13.9153 17.3104 13.7646 17.4611C13.6139 17.6118 13.4095 17.6964 13.1964 17.6964C12.9833 17.6964 12.7789 17.6118 12.6282 17.4611C12.4775 17.3104 12.3928 17.106 12.3928 16.8929V8.85714C12.3928 8.64402 12.4775 8.43963 12.6282 8.28893C12.7789 8.13823 12.9833 8.05357 13.1964 8.05357ZM5.14355 18.1968C5.20134 18.7932 5.47917 19.3467 5.92288 19.7494C6.36658 20.1521 6.94435 20.3751 7.54355 20.375H14.0278C14.627 20.3751 15.2048 20.1521 15.6485 19.7494C16.0922 19.3467 16.37 18.7932 16.4278 18.1968L17.6685 5.37499H3.90284L5.14355 18.1968Z" fill="#0585CD"/>
</svg>
