<svg width="30" height="30" viewBox="0 0 30 30" fill="none" xmlns="http://www.w3.org/2000/svg">
<path d="M9.65657 5.73701C9.56354 5.83003 9.49294 5.94217 9.43397 6.0651L9.42732 6.05845L0.11123 27.0446L0.120367 27.0537C-0.0523998 27.3884 0.236652 28.0695 0.828875 28.6626C1.4211 29.2548 2.1022 29.5439 2.43693 29.3711L2.44524 29.3794L23.4314 20.0625L23.4247 20.055C23.5468 19.9969 23.6589 19.9263 23.7528 19.8316C25.0502 18.5342 22.9463 14.3271 19.0549 10.4349C15.1618 6.54269 10.9548 4.4396 9.65657 5.73701Z" fill="#DD2E44"/>
<path d="M10.7978 9.48471L0.345461 26.5171L0.11123 27.0446L0.120367 27.0537C-0.0523998 27.3885 0.236652 28.0696 0.828875 28.6626C1.02158 28.8553 1.22175 29.0015 1.41778 29.1253L14.1203 13.6377L10.7978 9.48471Z" fill="#EA596E"/>
<path d="M19.1138 10.3701C22.9927 14.2507 25.1465 18.3871 23.9222 19.6098C22.6987 20.8341 18.5622 18.6812 14.6808 14.8022C10.801 10.9216 8.64811 6.78355 9.8716 5.56007C11.0959 4.33659 15.2323 6.48952 19.1138 10.3701Z" fill="#A0041E"/>
<path d="M15.441 10.8212C15.2757 10.9549 15.0597 11.0247 14.8313 10.9997C14.1103 10.9217 13.504 10.6708 13.0796 10.2746C12.6302 9.85515 12.4084 9.292 12.4691 8.72802C12.5754 7.73794 13.5688 6.82925 15.2624 7.01199C15.9211 7.08259 16.2151 6.87078 16.2251 6.76945C16.2367 6.66894 15.995 6.399 15.3363 6.32757C14.6154 6.24949 14.009 5.99864 13.5837 5.60245C13.1344 5.18299 12.9118 4.61984 12.9732 4.05585C13.0812 3.06577 14.0738 2.15709 15.7657 2.34065C16.2458 2.39215 16.4992 2.2933 16.6063 2.22935C16.6919 2.17702 16.7259 2.12718 16.7292 2.09811C16.7392 1.99761 16.5008 1.72766 15.8405 1.65623C15.3845 1.60639 15.0539 1.19773 15.1046 0.7409C15.1536 0.284896 15.5614 -0.044855 16.0191 0.00498144C17.711 0.186884 18.4885 1.28578 18.3813 2.27669C18.2733 3.26844 17.2808 4.17546 15.5872 3.99356C15.1071 3.94123 14.8562 4.0409 14.7482 4.10486C14.6627 4.15636 14.6278 4.20702 14.6245 4.23526C14.6137 4.3366 14.8537 4.60572 15.5141 4.67715C17.206 4.85988 17.9835 5.95794 17.8763 6.94886C17.7692 7.93894 16.7766 8.84763 15.0838 8.66406C14.6037 8.61257 14.3512 8.71224 14.2432 8.77537C14.1569 8.82852 14.1236 8.87836 14.1203 8.9066C14.1095 9.0071 14.3496 9.27705 15.0091 9.34848C15.4642 9.39832 15.7956 9.80781 15.745 10.2638C15.7217 10.4914 15.6063 10.6883 15.441 10.8212Z" fill="#AA8DD8"/>
<path d="M25.4672 18.5026C27.106 18.04 28.2365 18.7709 28.5056 19.7303C28.7747 20.6888 28.1916 21.9023 26.5537 22.3633C25.9141 22.5427 25.7222 22.8484 25.748 22.9455C25.7762 23.0435 26.101 23.2047 26.7389 23.0244C28.3769 22.5635 29.5073 23.2944 29.7764 24.2529C30.0472 25.2123 29.4625 26.4241 27.8237 26.8859C27.1849 27.0653 26.9922 27.3718 27.0205 27.469C27.0479 27.5662 27.3718 27.7273 28.0106 27.5479C28.4508 27.4242 28.9109 27.6808 29.0347 28.1219C29.1576 28.5638 28.901 29.0223 28.4591 29.1468C26.822 29.6078 25.6907 28.8786 25.4199 27.9184C25.1508 26.9599 25.7347 25.748 27.3743 25.2862C28.0139 25.1059 28.2058 24.8011 28.1775 24.7031C28.1509 24.6059 27.827 24.4439 27.1891 24.6234C25.5495 25.0852 24.4199 24.3559 24.1499 23.3949C23.88 22.4364 24.4639 21.2245 26.1027 20.7619C26.7406 20.5833 26.9324 20.276 26.9059 20.1796C26.8776 20.0816 26.5545 19.9205 25.9158 20.0999C25.4739 20.2245 25.0162 19.967 24.8916 19.5259C24.7679 19.0857 25.0254 18.6272 25.4672 18.5026Z" fill="#77B255"/>
<path d="M19.105 16.2625C18.8608 16.2625 18.6199 16.1553 18.4554 15.951C18.1689 15.5922 18.2279 15.0697 18.585 14.7831C18.7661 14.6378 23.0853 11.2456 29.1894 12.1186C29.6437 12.1833 29.9594 12.6036 29.8946 13.058C29.8298 13.5115 29.4128 13.8304 28.9543 13.7623C23.5612 12.9965 19.6623 16.0498 19.6241 16.0806C19.4696 16.2035 19.2869 16.2625 19.105 16.2625Z" fill="#AA8DD8"/>
<path d="M4.77928 12.8071C4.70037 12.8071 4.6198 12.7955 4.54007 12.7722C4.10067 12.6402 3.85149 12.1775 3.98356 11.7381C4.92464 8.60425 5.77767 3.60316 4.72944 2.29911C4.61233 2.15126 4.43541 2.0059 4.03007 2.03664C3.25096 2.09644 3.32489 3.74021 3.32572 3.75682C3.3606 4.21449 3.01673 4.61318 2.5599 4.64724C2.09559 4.67548 1.70354 4.33825 1.66949 3.88058C1.58393 2.73518 1.94026 0.529084 3.90548 0.380406C4.7826 0.313957 5.51105 0.61879 6.02519 1.25836C7.99456 3.70948 5.99529 10.8153 5.575 12.2157C5.46702 12.5754 5.13644 12.8071 4.77928 12.8071Z" fill="#77B255"/>
<path d="M21.1805 8.65411C21.8686 8.65411 22.4264 8.0963 22.4264 7.4082C22.4264 6.72011 21.8686 6.16229 21.1805 6.16229C20.4924 6.16229 19.9346 6.72011 19.9346 7.4082C19.9346 8.0963 20.4924 8.65411 21.1805 8.65411Z" fill="#5C913B"/>
<path d="M1.66121 16.1296C2.57868 16.1296 3.32243 15.3858 3.32243 14.4683C3.32243 13.5509 2.57868 12.8071 1.66121 12.8071C0.743751 12.8071 0 13.5509 0 14.4683C0 15.3858 0.743751 16.1296 1.66121 16.1296Z" fill="#9266CC"/>
<path d="M26.9947 16.9602C27.6828 16.9602 28.2406 16.4024 28.2406 15.7143C28.2406 15.0262 27.6828 14.4684 26.9947 14.4684C26.3066 14.4684 25.7488 15.0262 25.7488 15.7143C25.7488 16.4024 26.3066 16.9602 26.9947 16.9602Z" fill="#5C913B"/>
<path d="M19.5193 26.9275C20.2074 26.9275 20.7653 26.3696 20.7653 25.6815C20.7653 24.9935 20.2074 24.4356 19.5193 24.4356C18.8313 24.4356 18.2734 24.9935 18.2734 25.6815C18.2734 26.3696 18.8313 26.9275 19.5193 26.9275Z" fill="#5C913B"/>
<path d="M23.2569 4.50108C24.1744 4.50108 24.9181 3.75733 24.9181 2.83986C24.9181 1.9224 24.1744 1.17865 23.2569 1.17865C22.3395 1.17865 21.5957 1.9224 21.5957 2.83986C21.5957 3.75733 22.3395 4.50108 23.2569 4.50108Z" fill="#FFCC4D"/>
<path d="M26.9947 7.82349C27.6828 7.82349 28.2406 7.26567 28.2406 6.57758C28.2406 5.88948 27.6828 5.33167 26.9947 5.33167C26.3066 5.33167 25.7488 5.88948 25.7488 6.57758C25.7488 7.26567 26.3066 7.82349 26.9947 7.82349Z" fill="#FFCC4D"/>
<path d="M24.503 11.1459C25.1911 11.1459 25.7489 10.5881 25.7489 9.90002C25.7489 9.21193 25.1911 8.65411 24.503 8.65411C23.8149 8.65411 23.2571 9.21193 23.2571 9.90002C23.2571 10.5881 23.8149 11.1459 24.503 11.1459Z" fill="#FFCC4D"/>
<path d="M6.22955 20.2826C6.91765 20.2826 7.47546 19.7248 7.47546 19.0367C7.47546 18.3486 6.91765 17.7908 6.22955 17.7908C5.54146 17.7908 4.98364 18.3486 4.98364 19.0367C4.98364 19.7248 5.54146 20.2826 6.22955 20.2826Z" fill="#FFCC4D"/>
</svg>
