<svg width="17" height="17" viewBox="0 0 17 17" fill="none" xmlns="http://www.w3.org/2000/svg">
<path d="M9.3691 2.98263L14.0536 7.66718M0.780758 14.694L2.34227 16.2555M3.90379 13.1325L10.1499 6.88642M15.8447 3.99293C16.1492 4.29743 16.1469 4.79321 15.8385 5.10161L5.97109 14.969C5.63938 15.3007 5.2286 15.5424 4.77754 15.6713V15.6713C2.69523 16.2662 0.770065 14.3411 1.36501 12.2587V12.2587C1.49389 11.8077 1.73559 11.3969 2.0673 11.0652L11.9347 1.19782C12.0068 1.12423 12.0929 1.06566 12.1878 1.02548C12.2827 0.985306 12.3846 0.964323 12.4877 0.963742C12.5908 0.963162 12.6929 0.982995 12.7883 1.0221C12.8837 1.0612 12.9704 1.1188 13.0433 1.19157L15.8447 3.99293Z" stroke="white" stroke-width="1.45742"/>
</svg>
